<svg data-v-423bf9ae="" xmlns="http://www.w3.org/2000/svg" viewBox="0 0 482 90" class="iconLeft"><!----><!----><!----><g data-v-423bf9ae="" id="fd686a4a-9f75-4512-a13d-4825b342695f" fill="black" transform="matrix(4.647560085914902,0,0,4.647560085914902,119.41221780187703,-3.079009544204226)"><path d="M5.88 14L7.39 14L5.01 10.05C6.29 9.62 7 8.50 7 7.22C7 5.67 5.82 4.20 3.82 4.20L1.16 4.20L1.16 14L2.49 14L2.49 10.23L3.72 10.23ZM2.49 5.50L3.77 5.50C4.89 5.50 5.66 6.20 5.66 7.22C5.66 8.23 4.89 8.95 3.77 8.95L2.49 8.95ZM13.62 7L13.62 8.12C13.08 7.39 12.26 6.90 11.23 6.90C9.28 6.90 7.95 8.48 7.95 10.50C7.95 12.52 9.28 14.10 11.23 14.10C12.26 14.10 13.08 13.61 13.62 12.88L13.62 14L14.94 14L14.94 7ZM11.45 12.82C10.19 12.82 9.31 11.79 9.31 10.50C9.31 9.23 10.19 8.19 11.45 8.19C12.71 8.19 13.62 9.27 13.62 10.50C13.62 11.73 12.71 12.82 11.45 12.82ZM20.06 7L18.62 7L18.62 5.12L17.30 5.12L17.30 7L16.41 7L16.41 8.26L17.30 8.26L17.30 14L18.62 14L18.62 8.26L20.06 8.26ZM24.02 6.90C21.97 6.90 20.59 8.55 20.59 10.50C20.59 12.46 21.94 14.11 24.16 14.11C25.12 14.11 25.96 13.85 26.54 13.41L26.54 12.08C25.87 12.54 25.16 12.84 24.23 12.84C23.03 12.84 22.16 12.14 21.95 11.03L27.30 11.03C27.45 8.82 26.21 6.90 24.02 6.90ZM24.00 8.22C25.00 8.22 25.72 8.92 25.91 9.94L21.97 9.94C22.18 8.93 22.93 8.22 24.00 8.22ZM43.78 14L41.52 4.05L41.33 4.05L38.25 11.49L35.15 4.05L34.96 4.05L32.80 14L34.17 14L35.45 7.78L38.15 14.11L38.33 14.11L41.08 7.71L42.43 14ZM49.50 7L47.38 12.46L45.23 7L43.81 7L46.72 13.94L45.49 16.80L46.83 16.80L50.93 7ZM58.98 14.14C60.89 14.14 62.02 12.95 62.03 11.48C62.08 8.18 57.46 8.72 57.47 6.59C57.47 5.87 58.09 5.33 58.98 5.33C59.75 5.33 60.45 5.82 60.93 6.36L61.80 5.46C61.19 4.73 60.20 4.06 58.95 4.06C57.32 4.06 56.13 5.17 56.11 6.58C56.11 9.79 60.69 9.11 60.69 11.47C60.69 12.25 60.05 12.85 59.07 12.85C58.18 12.85 57.36 12.31 56.81 11.52L55.85 12.43C56.48 13.40 57.65 14.14 58.98 14.14ZM64.55 5.68C65.07 5.68 65.45 5.29 65.45 4.77C65.45 4.28 65.07 3.89 64.55 3.89C64.04 3.89 63.66 4.28 63.66 4.77C63.66 5.29 64.04 5.68 64.55 5.68ZM63.90 14L65.21 14L65.21 7L63.90 7ZM70.57 7L69.13 7L69.13 5.12L67.82 5.12L67.82 7L66.92 7L66.92 8.26L67.82 8.26L67.82 14L69.13 14L69.13 8.26L70.57 8.26ZM74.54 6.90C72.48 6.90 71.11 8.55 71.11 10.50C71.11 12.46 72.45 14.11 74.68 14.11C75.63 14.11 76.47 13.85 77.06 13.41L77.06 12.08C76.38 12.54 75.67 12.84 74.75 12.84C73.54 12.84 72.67 12.14 72.46 11.03L77.81 11.03C77.97 8.82 76.72 6.90 74.54 6.90ZM74.51 8.22C75.52 8.22 76.23 8.92 76.43 9.94L72.48 9.94C72.69 8.93 73.44 8.22 74.51 8.22Z"></path></g><!----><g data-v-423bf9ae="" id="94c15cbc-d03c-4ae8-a6e7-0824a050fa96" transform="matrix(11.649997302665275,0,0,11.649997302665275,-8.857788048211233,-16.218847789309358)" stroke="none" fill="black"><path d="M1.571 1.43a.782.782 0 0 0-.777.777V7.41c0 .426.351.777.777.777h2.41l.004.303a.265.265 0 0 0 .397.227l.789-.452.439.758a.265.265 0 0 0 .361.096l.76-.436a.265.265 0 0 0 .098-.361l-.079-.135h2.262a.781.781 0 0 0 .778-.777V2.207a.782.782 0 0 0-.778-.778zm0 .529h7.441c.142 0 .248.106.248.248v.789H1.323v-.79c0-.141.106-.247.248-.247zm.332.233a.285.285 0 0 0-.284.285.285.285 0 0 0 .284.285.285.285 0 0 0 .286-.285.285.285 0 0 0-.286-.285zm.779 0a.285.285 0 0 0-.284.285.285.285 0 0 0 .284.285.285.285 0 0 0 .286-.285.285.285 0 0 0-.286-.285zm.78 0a.285.285 0 0 0-.284.285.285.285 0 0 0 .283.285.285.285 0 0 0 .287-.285.285.285 0 0 0-.287-.285zm-2.14 1.333H9.26V7.41a.242.242 0 0 1-.248.248h-2.57l-.053-.092.916-.525a.265.265 0 0 0 .004-.458L4.34 4.83a.265.265 0 0 0-.268-.001.265.265 0 0 0-.13.232l.033 2.598H1.571a.242.242 0 0 1-.248-.248zm3.153 2L6.65 6.808l-.754.432a.265.265 0 0 0-.097.361l.439.756-.3.172-.442-.758a.265.265 0 0 0-.36-.096l-.626.36z" color="#000" paint-order="stroke fill markers"></path></g><!----></svg>