<?xml version="1.0" standalone="no"?>
<!DOCTYPE svg PUBLIC "-//W3C//DTD SVG 20010904//EN"
 "http://www.w3.org/TR/2001/REC-SVG-20010904/DTD/svg10.dtd">
<svg version="1.0" xmlns="http://www.w3.org/2000/svg"
 width="840.000000pt" height="840.000000pt" viewBox="0 0 840.000000 840.000000"
 preserveAspectRatio="xMidYMid meet">
<metadata>
Created by potrace 1.14, written by Peter Selinger 2001-2017
</metadata>
<g transform="translate(0.000000,840.000000) scale(0.100000,-0.100000)"
fill="#000000" stroke="none">
<path d="M649 7806 c-2 -2 -22 -6 -44 -9 -47 -5 -152 -40 -209 -69 -164 -83
-294 -236 -359 -421 l-32 -92 -2 -2540 c-3 -2660 -4 -2601 36 -2690 5 -11 15
-35 22 -54 19 -51 101 -172 145 -215 109 -108 237 -178 374 -207 40 -9 375
-12 1225 -14 l1170 -1 2 -150 c1 -82 7 -170 13 -195 24 -101 131 -183 235
-181 78 2 69 -1 250 102 19 11 51 29 70 40 87 50 103 59 153 89 29 17 55 31
58 31 3 0 18 8 32 18 15 11 52 33 82 49 125 69 155 87 162 97 4 6 8 7 8 3 0
-5 10 -1 21 7 25 17 33 12 62 -44 34 -64 52 -95 57 -100 3 -3 12 -18 20 -35 8
-16 17 -32 20 -35 3 -3 16 -25 29 -50 13 -25 30 -52 37 -61 8 -8 14 -19 14
-22 0 -4 11 -25 25 -47 14 -22 38 -64 55 -95 43 -79 54 -99 60 -105 4 -4 14
-21 54 -95 22 -40 91 -95 139 -111 66 -22 132 -14 204 23 61 32 391 220 408
233 6 4 37 22 70 40 33 18 78 44 100 56 22 13 58 33 79 45 21 11 44 25 50 30
6 5 25 20 43 34 60 48 92 155 73 241 -5 19 -26 65 -49 102 -23 38 -41 72 -41
78 0 5 416 9 1088 9 598 1 1109 4 1135 8 58 9 175 51 230 82 91 50 240 189
256 238 2 7 7 14 11 17 12 9 68 135 80 180 6 25 16 61 21 80 10 39 8 5093 -3
5125 -3 11 -9 34 -13 50 -4 17 -12 36 -18 43 -5 6 -6 12 -2 12 4 0 1 7 -6 17
-8 9 -12 17 -10 17 6 2 -39 87 -72 135 -48 70 -188 201 -215 201 -6 0 -17 6
-24 13 -23 22 -115 59 -213 84 -30 8 -7158 17 -7166 9z m7116 -510 c54 -23 93
-62 118 -116 20 -43 21 -63 22 -433 0 -257 -3 -391 -10 -395 -5 -4 -1148 -8
-2540 -9 -1392 -1 -2579 -2 -2640 -3 -60 -1 -114 -1 -120 0 -5 1 -14 2 -20 1
-14 -3 -209 -3 -220 -1 -6 2 -13 2 -17 1 -12 -3 -211 -4 -223 -1 -5 1 -14 2
-20 1 -14 -2 -370 -2 -381 0 -5 1 -12 1 -16 0 -12 -3 -211 -4 -223 -1 -5 1
-14 2 -20 1 -14 -2 -370 -2 -381 0 -5 1 -12 1 -16 0 -21 -6 -217 -3 -226 3 -6
3 -13 2 -17 -4 -4 -6 -11 -8 -17 -4 -5 3 -76 7 -156 8 l-147 2 0 384 c-1 333
2 390 16 433 21 63 73 115 135 136 45 15 326 16 3564 15 3309 0 3517 -1 3555
-18z m139 -3283 c-1 -1011 -4 -1848 -7 -1859 -15 -60 -66 -117 -129 -144 l-51
-22 -1220 1 c-670 1 -1222 3 -1226 5 -3 3 -14 20 -25 40 -17 32 -17 36 -3 51
9 9 19 15 22 15 5 -1 85 44 145 81 8 5 33 18 55 30 22 12 47 27 55 34 8 8 17
13 20 12 3 0 16 6 30 15 65 41 203 118 210 118 4 0 18 8 31 19 13 10 56 35 94
56 39 21 75 41 80 45 6 5 33 20 60 35 131 71 181 177 148 305 -23 87 -82 134
-366 294 -29 16 -54 32 -57 35 -3 3 -25 17 -50 30 -25 13 -64 37 -88 53 -24
15 -46 28 -49 28 -4 0 -38 20 -77 44 -94 58 -412 245 -456 269 -19 11 -42 25
-50 32 -8 6 -22 15 -30 18 -8 4 -37 20 -65 37 -27 17 -58 33 -67 37 -10 3 -18
9 -18 14 0 5 -4 9 -9 9 -5 0 -42 20 -83 44 -40 25 -122 73 -181 108 -60 35
-121 71 -135 80 -15 10 -34 21 -42 25 -8 4 -60 34 -115 67 -55 32 -199 118
-320 189 -121 71 -233 138 -250 148 -16 11 -41 24 -55 31 -14 7 -43 24 -65 39
-85 56 -285 168 -317 177 -79 22 -178 -6 -233 -65 -48 -52 -55 -61 -58 -80 -1
-10 -6 -23 -10 -29 -6 -11 -4 -329 8 -1344 16 -1240 16 -1150 -3 -1151 -9 0
-525 -1 -1147 -1 l-1130 -1 -48 23 c-52 25 -110 88 -123 135 -4 17 -8 857 -9
1868 l-1 1837 3705 0 3706 0 -1 -1837z m-4373 -89 c8 -8 19 -14 22 -14 4 0 37
-18 73 -40 36 -22 68 -40 69 -40 2 0 39 -22 82 -48 43 -26 85 -51 93 -55 8 -4
29 -16 45 -27 17 -11 36 -23 44 -26 7 -4 65 -38 128 -76 63 -37 118 -68 124
-68 5 0 9 -3 9 -7 0 -5 10 -13 23 -19 44 -21 122 -67 138 -80 8 -8 18 -14 21
-14 3 0 58 -31 122 -70 65 -38 121 -70 127 -70 5 0 9 -4 9 -10 0 -5 4 -10 10
-10 5 0 39 -18 75 -40 36 -22 67 -40 70 -40 2 0 24 -13 48 -30 25 -16 50 -30
56 -30 6 0 11 -3 11 -7 0 -5 10 -13 23 -19 56 -27 142 -78 145 -86 2 -4 8 -8
13 -8 5 0 38 -18 74 -40 36 -22 70 -40 75 -40 6 0 10 -4 10 -10 0 -5 4 -10 9
-10 17 0 181 -102 176 -110 -4 -6 -170 -104 -286 -168 -73 -40 -84 -47 -101
-61 -10 -8 -18 -10 -18 -5 0 5 -4 4 -8 -2 -4 -6 -34 -26 -67 -44 -33 -18 -73
-41 -90 -51 -16 -10 -52 -30 -78 -44 -57 -31 -127 -92 -127 -111 0 -8 -4 -14
-9 -14 -14 0 -29 -78 -26 -134 2 -33 13 -72 29 -102 39 -74 72 -132 83 -146 6
-7 24 -38 40 -68 17 -30 63 -111 103 -180 179 -305 182 -312 168 -322 -80 -52
-261 -148 -268 -142 -9 10 -410 694 -410 701 0 15 -70 76 -107 93 -72 34 -145
31 -223 -8 -98 -50 -145 -76 -148 -84 -2 -5 -7 -8 -12 -8 -4 0 -69 -36 -145
-80 -76 -44 -139 -80 -140 -80 -2 0 -33 -18 -70 -41 -37 -22 -69 -38 -71 -36
-3 2 -7 154 -9 338 -3 184 -7 507 -10 719 -12 793 -17 1253 -16 1272 1 9 68
-27 92 -48z"/>
</g>
</svg>
